<?xml version="1.0" encoding="UTF-8"?><svg id="uuid-2d3c9a27-3daa-4b41-b033-471d21f0e67c" xmlns="http://www.w3.org/2000/svg" viewBox="0 0 177.39 191.97">
<title>Autoliv old logo - Brandlogos.net</title><path d="M51.88,2.68c4.83,3.85,5.04,10.48,4.02,16.1-.8,2.29-.7,5.72-2.87,7.34-5.7-.95-5.74.21-5.61,4.41-3.61-.59-6.22-1.19-10.6-1.13-.1-3.25-.2-6.88-.86-10.02-1.06-5.97-2.72-13.28,2.4-18.15,4.44-2.31,9.38-1.09,13.52,1.45h0Z" style="fill:#dddfe0;"/><path d="M111.57,23.17c3.43,3.63,4.24,10.76,2.51,13.95-3.79,5.88-7.57,8.46-12.87,11.03-3.13,1.47-3.74-1.88-5.7-3.45-2.42-.73-4.53,1.23-6.21,1.59-.45-2.42-2-7.79-5.93-10.02,2.76-1.86,7.29-4.23,10.38-8.69,4.31-5.29,12.05-10.19,17.82-4.41h0Z"/><path d="M76.92,5.5c4.81,1.3,9.23,6.96,9.42,10.58-.16,6.99-2.04,11.17-5.23,16.13-1.91,2.89-4.56-.29-6.93-.23-1.95.1-2.64,4.18-3.82,5.42-3.38-3.27-7.57-5.2-10.53-6.36,1.38-3.04,3.89-7.05,4.2-12.47.91-6.77,4.95-14.99,12.89-13.08h0Z" style="fill:#9ea1a3;"/><path d="M3.47,26.88c9.45.15,21.85,1.58,30.66,3.84-.61,2.38-.71,7.67-.1,12.69-3.68-.59-19.37-1.79-30.56-1.27-.33.02-.88-.06-.97-1.35-.24-3.49-.24-11.6,0-13.04.11-.67.64-.87.97-.87h0Z" style="fill:#486585;"/><path d="M54.17,34.63c-5.35,15.03-8.07,35.57-5.26,47.34l1.05,4.48c-14.41-25.33-17.01-56.34-13.34-55.84,3.06.15,16.57,1.37,17.55,4.02h0Z" style="fill:#dddfe0;"/><path d="M73.24,41.89c-11.83,10.13-21.93,26.18-21.47,45.65-4.9-13.23-.21-47.37,7.1-55.57,4.99,1.57,10.46,5.5,14.38,9.91h0Z" style="fill:#9ea1a3;"/><path d="M88.56,48.55c.78,14.61-9.79,25.48-20.17,35.28,0,0-11.83,9.85-14.83,11.5-.05.01-.46.06-.74-2.59-2.15-21.37,8.81-38.32,23.99-52.43,2.18-1.52,3.87-3.58,6.07-3.33,3.72,3.04,4.99,7.45,5.68,11.56h0Z"/><path d="M90.03,57.96c0,14.31-8.91,24.99-18.6,35.28-11.36,10.8-23.64,19.26-36.14,27.31-.32.21-1.24.16-1.64-.56-1.4-1.65-3.29-5.14-4.25-7.66-.3-.53.25-1.24.62-1.43,18-9.59,39.56-23.55,52.51-40.16,3.53-4.85,6.34-10.91,7.04-16.52.31.69.43,2.56.47,3.75h0Z" style="fill:#486585;"/><path d="M120.58,85.5c-1.37,6.86-9.01,9.41-13.9,13.13-12.82,5.29-23.69,20.04-39.46,14.16-3.3-1.52-6.83-5.02-6.53-8.36,14.2-10.78,29.69-20.41,47.36-22.76,4.7-.1,9.99-.29,12.53,3.82h0Z"/><path d="M128.12,90.11c7.34,9.7,17.33,18.33,23.01,28.72-2.35,1.27-4.5-.29-6.85-.49-9.89-3.63-22.42-10.78-24.87-22.35-.69-2.65,0-5.39,1.66-7.45,2.15-1.86,5.68-.88,7.05,1.57h0Z"/><path d="M171.1,116.96l-.41,1.3-13.29,9.06c-3.99,1.84-5.68-2.03-8.42-3.8-1.27-2.45,3.5-3.72,4.87-4.51,5.78-1.67,10.4-2.94,16.76-2.55l.49.49h0Z"/><path d="M126.17,63.04c8.48-9.04,11.14-20.34,5.94-25.23-5.2-4.89-17.44,1.99-25.93,11.03-8.48,9.05-11.15,20.34-5.94,25.23,5.2,4.89,17.44-1.99,25.92-11.03h0Z" style="fill:#486585;"/><polygon points="130.62 134.65 130.62 171.21 123.04 171.21 123.04 140.45 130.62 134.65"/><path d="M103.49,146.85c9.17,0,14.14,5.53,14.14,12.55s-5.48,12.17-14.14,12.17-13.91-5.53-13.91-12.41,4.97-12.31,13.91-12.31h0ZM103.47,167.63h.07c5.25,0,6.19-5.65,6.19-8.59s-1.26-8.3-6.2-8.3-6.26,5.36-6.26,8.3c0,2.95.95,8.59,6.19,8.59h0Z"/><path d="M69.12,150.87c-.64,0-1.13-.37-1.13-.89l11.23-9c.07-.04.15-.07.24-.07.2,0,.37.13.37.3l-.03,6.22h6.77v3.45h-6.77v12.37c-.03,7.12,6.75,4.24,6.75,4.24v3.51s-6.67,2.11-11.96-.67c-2.58-1.35-2.36-4.44-2.36-6.78v-12.67h-3.1Z"/><path d="M13.54,139.58h9.13l12.31,31.71h-8.71l-2.42-6.61h-12.81l-2.48,6.61H1.19l12.35-31.71h0ZM12.77,158.79h8.43l-4.21-11.28-4.22,11.28h0Z"/><path d="M55.87,147.4h7.62s-.02,23.92-.02,23.92h-7.6v-4.07h-.11c-1.39,2.99-4.63,4.54-8.61,4.54-2.94,0-6.24-1.76-7.06-2.91-1.52-2.1-1.54-4.07-1.54-6.35v-15.12s7.59,0,7.59,0v15.11c0,1.92,1.7,4.1,4.7,4.1,1.9,0,3.79-.96,4.31-2.64.34-1.1.76-2.44.76-3.66l-.03-12.92h0Z"/><polygon points="172.02 147.41 177.39 147.4 167.41 171.18 160.66 171.18 150.49 147.39 159.11 147.4 165.65 163.74 172.02 147.41"/><polygon points="137.6 147.38 145.12 147.38 145.12 171.21 137.6 171.21 137.6 147.38"/><polygon points="145.17 134.74 145.17 143.82 137.6 143.82 137.6 140.53 145.17 134.74"/><polygon points="0 179.48 177.16 179.48 177.16 191.97 0 191.97 0 179.48"/></svg>