<svg width="136" height="32" viewBox="0 0 136 32" fill="none" xmlns="http://www.w3.org/2000/svg">
    <g clip-path="url(#clip0)">
        <path d="M117.988 1.20996H135.2V8.64002H126.457V12.0095H135.2V19.4395H126.457V23.8889H135.2V31.319H117.988V1.20996Z" fill="black"/>
        <path d="M88.2092 8.63965H81.9255V31.189H88.2092V8.63965Z" fill="black"/>
        <path d="M88.209 1.08008H82.0674V6.35024H88.209V1.08008Z" fill="black"/>
        <path d="M105.967 10.6699H113.617C113.617 10.6699 114.295 0 103.366 0C92.4384 0 92.7116 9.17958 92.7116 9.17958C92.7116 9.17958 92.1652 13.7694 97.356 16.6096C102.809 19.5903 105.137 19.5903 104.875 22.4198C104.601 25.2492 100.088 24.8497 100.088 22.1498V21.7394H92.9848C92.9848 21.7394 92.0231 31.189 103.366 31.189C103.366 31.189 113.475 31.4589 113.475 22.8193C113.475 22.8193 114.568 16.4692 106.241 12.8298C106.241 12.8298 101.388 11.8147 101.323 9.17958C101.323 9.17958 101.531 7.28966 103.64 7.28966C106.853 7.28966 105.967 10.6699 105.967 10.6699Z" fill="black"/>
        <path d="M13.8982 10.7998H21.5479C21.5479 10.7998 22.2254 0.129883 11.2974 0.129883C0.369302 0.129883 0.642503 9.30946 0.642503 9.30946C0.642503 9.30946 0.0960997 13.8992 5.28693 16.7395C10.74 19.7202 13.0677 19.7202 12.7945 22.5496C12.5213 25.3791 8.01895 24.9795 8.01895 22.2797V21.8693H0.915705C0.915705 21.8693 -0.0459648 31.3188 11.2974 31.3188C11.2974 31.3188 21.4058 31.5888 21.4058 22.9492C21.4058 22.9492 22.4986 16.5991 14.1605 12.9597C14.1605 12.9597 9.30846 11.9445 9.24289 9.30946C9.24289 9.30946 9.45052 7.41955 11.5596 7.41955C14.7834 7.43034 13.8982 10.7998 13.8982 10.7998Z" fill="black"/>
        <path d="M64.3092 0.950195C64.3092 0.950195 79.6085 0.950195 79.6085 15.6591C79.6085 33.2083 62.9432 31.3184 62.9432 31.3184H52.4304V0.950195H64.3092ZM60.0691 8.70424V23.9531H64.3748C64.3748 23.9531 70.9972 24.2231 70.9972 15.8535C70.9972 15.8535 70.1776 8.70424 64.3748 8.70424H60.0691Z" fill="black"/>
        <path d="M24.2471 15.9514C24.2471 10.0333 29.0991 5.23828 35.0877 5.23828C41.0763 5.23828 45.9284 10.0333 45.9284 15.9514C45.9284 21.8695 41.0763 26.6645 35.0877 26.6645C29.0991 26.6645 24.2471 21.8587 24.2471 15.9514ZM35.0877 21.3079C38.082 21.3079 40.508 18.9105 40.508 15.9514C40.508 12.9923 38.082 10.5948 35.0877 10.5948C32.0934 10.5948 29.6674 12.9923 29.6674 15.9514C29.6674 18.8997 32.0934 21.3079 35.0877 21.3079Z" fill="#009EE3"/>
        <path d="M45.8627 27.2686H24.2798V31.3184H45.8627V27.2686Z" fill="#D9050E"/>
        <path d="M45.8627 0.540039H24.2798V4.58985H45.8627V0.540039Z" fill="#D9050E"/>
    </g>
    <defs>
        <clipPath id="clip0">
            <rect width="135.2" height="32" fill="white"/>
        </clipPath>
    </defs>
</svg>
