<?xml version="1.0" encoding="UTF-8"?>
<svg id="Layer_1" data-name="Layer 1" xmlns="http://www.w3.org/2000/svg" viewBox="0 0 960 960">
  <defs>
    <style>
      .cls-1 {
        fill: #f29111;
      }

      .cls-1, .cls-2 {
        stroke-width: 0px;
      }

      .cls-2 {
        fill: #00758a;
      }
    </style>
  </defs>
  <path id="path19" class="cls-1" d="M102.45,420.8l-13.83,47.32h62.43v-30.39c0-5.1-2.18-9.46-5.64-12.74-1.46-1.27-3.09-2.37-4.91-3.09-1.82-.73-4-1.09-6.19-1.09h-31.85ZM114.46,437h19.84c.36,0,.55.36.55.55h0v14.56h-24.75l4.37-15.11Z"/>
  <path id="path17" class="cls-2" d="M13.63,420.8l29.67,104.84c.73,2.55,1.46,4,2.37,5.46.36.55.73,1.09,1.09,1.46.91,1.09,2.18,2.18,3.46,3.09,1.46.91,2.73,1.64,4.37,2.18,1.82.55,3.46.73,5.64.73h24.75l10.92-38.04h38.95v21.29c0,.36-.36.55-.55.55h-27.85l-4.73,16.2h32.4c4.37,0,8.19-1.64,11.1-4.19,3.64-3.09,5.82-7.46,5.82-12.74v-37.31h-66.98l-10.92,38.04h-14.01l-24.21-85.36h16.74l8.92,31.12h16.74l-13.47-47.32H13.63Z"/>
  <path id="path9" class="cls-1" d="M867.23,456.11l27.48,39.5-28.94,41.86h18.75l20.02-30.21,19.47,30.21h21.48l-28.94-41.68,27.48-39.68h-19.11l-18.38,27.85-18.2-27.85s-21.11,0-21.11,0Z"/>
  <path id="path8" class="cls-1" d="M771.32,505.07c.18-3.46-.36-6.55-1.09-9.1-1.27-4.73-3.64-8.19-6.55-10.92-1.64-1.64-3.64-2.91-5.64-4-2.55-1.27-4.73-2.37-7.64-3.09,2.55-.73,4.37-1.82,6.73-3.64,1.46-1.09,2.91-2.55,4.19-4.19,2-2.55,3.46-5.1,4.37-8.55.55-2.18.91-4.19.91-7.28,0-2.37-.18-5.1-.73-7.28-.73-3.28-2-6.37-3.46-8.74-2.18-3.46-5.28-6.19-8.74-8.01-2.91-1.64-5.82-2.55-8.92-3.46-4.73-1.27-12.74-1.82-16.38-1.82h-40.04v112.48h37.86c3.28,0,8.01-.18,11.28-.55,10.37-1.09,19.11-4,24.93-9.1,2-1.82,4.91-4.91,6.92-10.01,1.09-3.28,1.82-7.28,2-12.74ZM747.29,455.56c0,3.82-.36,6.37-1.46,8.74-1.46,2.91-4,4.91-6.92,6.19-3.64,1.46-10.56,2.37-14.92,2.37h-17.29v-32.76h19.11c4,0,8.01.55,11.1,1.46,6.55,1.82,10.37,5.82,10.37,14.01ZM729.27,522.36h-22.57v-35.31h20.75c5.28,0,9.65.73,13.29,2,4.19,1.46,7.83,3.82,9.83,7.83,2,4.37,2.18,11.65-.55,16.74-1.46,2.55-3.64,4.73-7.64,6.37-2,.91-4.91,1.46-7.46,2-2,.18-3.46.36-5.64.36Z"/>
  <path id="path6" class="cls-1" d="M862.86,496.7c0-17.29-5.82-28.21-14.01-34.58-7.46-5.64-16.74-7.83-25.48-7.83-7.64,0-15.47,1.46-22.02,5.46-6.01,3.46-11.83,9.83-14.92,18.93-1.64,5.1-2.73,11.1-2.73,18.02,0,11.65,2.55,20.38,6.73,26.94,4.19,6.55,10.56,10.92,17.29,13.29,5.1,1.82,10.01,2.18,15.47,2.18,10.56,0,21.66-2,30.58-12.56,2.18-2.55,4.19-5.64,5.46-9.28,2.73-6.37,3.64-12.38,3.64-20.57ZM844.12,496.7c0,24.39-12.01,27.85-20.75,27.85-9.28,0-20.75-3.82-20.75-27.85,0-21.48,9.83-27.85,20.75-27.85,10.37,0,20.75,5.82,20.75,27.85Z"/>
  <path id="path16" class="cls-2" d="M297.55,456.11v7.64l8.19,6.01v67.71h18.75v-81.36h-26.94Z"/>
  <path id="path15" class="cls-2" d="M303.02,424.26v15.29h21.48v-15.29h-21.48Z"/>
  <path id="path14" class="cls-2" d="M638.45,421.35v7.46l8.19,6.01v102.65h18.75v-116.12h-26.94Z"/>
  <path id="path13" class="cls-2" d="M625.53,537.47v-54.06c0-13.29-4.73-21.29-13.1-25.3-5.1-2.55-11.28-3.64-18.75-3.64-6.55,0-12.38.91-17.11,2-7.64,1.64-12.38,3.82-12.38,3.82v14.56s14.56-5.82,27.12-5.82c7.1,0,11.28.91,13.47,4.37,1.27,1.82,2.18,5.46,2.18,8.55v4.37h-16.74c-2.73,0-8.01.36-13.47,2-2.73.73-5.46,2-8.01,3.46-4.37,2.73-8.37,7.1-10.19,12.19-.91,2.73-1.64,5.82-1.64,9.65,0,8.92,2.73,14.01,6.37,17.84,6.01,6.37,14.01,7.83,20.75,7.83,12.01,0,19.11-5.82,22.2-8.92,1.09-1.09,4.19-4.91,4.19-4.91l2.55,12.19h12.56v-.18ZM607.15,514.17s-2.18,3.46-5.64,6.37c-2.37,2-6.37,3.82-10.19,4.55-3.64.55-7.46.55-10.74-1.27-3.09-1.82-5.82-5.46-5.82-10.56,0-2.18,0-3.82.55-5.46.73-2.73,2.55-4.55,4.37-6.01,2-1.46,4.37-2.37,7.28-2.91,2.55-.36,5.28-.36,8.01-.36h12.01v15.65h.18Z"/>
  <path id="path12" class="cls-2" d="M540.17,537.47v-81.36h-18.75v52.78s-2.18,5.28-6.37,9.1c-3.28,2.91-7.46,5.28-13.47,5.64-6.73.36-10.74-2.73-12.92-7.46-1.27-2.73-2-8.01-2-9.46v-50.6h-18.75v49.32c0,9.1,1.46,15.83,4,20.38,5.46,10.19,14.56,13.47,24.57,13.1,11.1,0,18.56-5.1,22.39-8.55,2-1.82,5.64-6.19,5.64-6.19l2.91,13.1h12.74v.18Z"/>
  <path id="path11" class="cls-2" d="M451.9,537.47v-14.56s-1.09.36-6.37.36c-2,0-6.19-.18-8.74-2.55-2.37-2.18-3.28-6.37-3.28-9.83v-40.22h17.47v-14.56h-17.47v-22.93h-12.01l-6.37,22.57-14.56,5.64v9.28h14.01v39.86c0,8.01,1.09,12.56,3.09,16.38,1.46,3.09,3.46,5.28,5.82,6.92,4.73,3.28,10.56,4.37,15.65,4.37,12.19,0,12.74-.73,12.74-.73Z"/>
  <path id="path10" class="cls-2" d="M390.74,473.22v-16.93c.18-.18-5.82-.91-10.74-.18-2.91.55-6.01,1.64-8.01,2.91-6.92,4-10.19,10.74-10.19,10.74l-3.09-13.65h-12.38v81.36h18.75v-48.23c2-5.64,4.91-10.92,10.37-13.83,2.37-1.27,4.73-2,7.64-2.18,2.37-.18,7.64,0,7.64,0Z"/>
  <path id="path1" class="cls-2" d="M292.28,425.17h-20.75l-21.84,64.61c-3.46,10.37-8.19,24.02-8.19,24.02,0,0-4.73-13.83-8.19-24.02l-21.84-64.61h-21.66l41.68,112.48h18.93l41.86-112.48Z"/>
</svg>